<svg xmlns="http://www.w3.org/2000/svg" width="512" height="512" viewBox="0 0 512 512" fill="none"><rect width="512" height="512" fill="#001E40"></rect><path d="M424.389 147.2H157.832C157.18 147.2 156.498 147.2 155.845 147.2C90.9999 147.2 38.4 199.49 38.4 264C38.4 328.51 90.9702 380.8 155.845 380.8C155.964 380.8 156.053 380.8 156.172 380.8C156.29 380.8 156.379 380.8 156.498 380.8C183.776 380.8 209.542 371.428 230.09 355.827C240.853 347.64 250.163 337.734 257.517 326.552C258.021 325.752 295.706 264 295.706 264H235.516C235.516 264 212.626 303.685 206.903 309.854C194.361 323.349 176.482 331.95 156.557 331.95C156.557 331.95 156.32 331.95 156.201 331.95C156.083 331.95 155.964 331.95 155.845 331.95C118.13 331.95 87.5308 301.52 87.5308 264C87.5308 226.48 118.071 196.109 155.756 196.02H158.039L395.184 196.287L285.151 380.8H345.074L460.8 187.508V147.2H424.449H424.389Z" fill="url(#paint0_linear_12_15)"></path><defs><linearGradient id="paint0_linear_12_15" x1="38.4" y1="264" x2="460.741" y2="264" gradientUnits="userSpaceOnUse"><stop stop-color="#003E7F"></stop><stop offset="0.99" stop-color="#0F80C7"></stop></linearGradient></defs></svg>