<?xml version="1.0" encoding="UTF-8"?>
<svg id="Camada_1" data-name="Camada 1" xmlns="http://www.w3.org/2000/svg" xmlns:xlink="http://www.w3.org/1999/xlink" viewBox="0 0 1600 500">
  <defs>
    <style>
      .cls-1 {
        fill:rgb(219, 219, 219);
      }

      .cls-1, .cls-2 {
        stroke-width: 0px;
      }

      .cls-2 {
        fill: url(#Gradiente_sem_nome_47);
      }
    </style>
    <linearGradient id="Gradiente_sem_nome_47" data-name="Gradiente sem nome 47" x1="950.59" y1="250.2" x2="1540.64" y2="250.2" gradientUnits="userSpaceOnUse">
      <stop offset="0" stop-color="#0063a9"/>
      <stop offset="1" stop-color="#0063a9"/>
    </linearGradient>
  </defs>
  <polygon class="cls-1" points="59.36 152.91 216.23 152.91 59.36 347.91 59.36 403.54 304.35 403.54 304.35 341.66 148.1 341.66 304.35 146.66 304.35 91.04 59.36 91.04 59.36 152.91"/>
  <path class="cls-1" d="m555.93,106.04c-22.5-12.91-48.54-19.37-78.12-19.37s-55.21,6.88-78.12,20.62c-22.92,13.75-40.84,32.5-53.75,56.25-12.92,23.75-19.37,50.84-19.37,81.25,0,32.09,6.56,60.42,19.69,85,13.13,24.59,31.46,43.75,55,57.5,23.53,13.75,50.94,20.62,82.19,20.62s57.91-7.19,82.5-21.56c24.58-14.37,43.13-34.06,55.62-59.06l-61.87-20.62c-5.42,11.67-15.11,21.04-29.06,28.12-13.97,7.09-29.69,10.63-47.19,10.63-14.59,0-27.5-2.91-38.75-8.75-11.25-5.83-20.53-14.06-27.81-24.69-7.29-10.63-11.98-23.22-14.06-37.81h222.5c.83-6.25,1.46-12.19,1.88-17.81.41-5.62.62-10.94.62-15.94,0-30.41-6.36-57.19-19.06-80.31-12.72-23.12-30.31-41.14-52.81-54.06Zm-151.87,110.62c2.08-13.75,6.77-25.72,14.06-35.94,7.29-10.2,16.14-18.22,26.56-24.06,10.41-5.83,21.45-8.75,33.13-8.75,13.33,0,25.41,3.03,36.25,9.06,10.83,6.04,19.58,14.28,26.25,24.69,6.66,10.42,10.2,22.09,10.63,35h-146.87Z"/>
  <path class="cls-1" d="m856.19,281.88c40.32-10.21,70.31-48.5,70.31-94.21,0-53.52-41.08-96.9-91.76-96.9-2.81,0-5.59.15-8.34.42v-.42h-155.72v317h70.45v-123.2h46.17l70.62,123.2h70.45l-72.16-125.89Zm-27.02-57.99c-.94,0-1.86-.07-2.78-.15v.15h-85.28v-72.43h85.28v.15c.92-.08,1.84-.15,2.78-.15,18.94,0,34.3,16.21,34.3,36.22s-15.35,36.22-34.3,36.22Z"/>
  <path class="cls-2" d="m1489.85,87.06h-372.41v.04c-.93-.02-1.85-.04-2.78-.04-90.61,0-164.06,73.04-164.06,163.14s73.45,163.14,164.06,163.14c.15,0,.29,0,.44,0,.15,0,.29,0,.44,0,38.12,0,74.12-13.07,102.8-34.89,15.03-11.43,28.06-25.27,38.32-40.88.72-1.1,53.37-87.37,53.37-87.37h-84.1s-31.97,55.43-39.99,64.05c-17.54,18.86-42.48,30.87-70.36,30.88v-.02c-.16,0-.32,0-.49.01-.16,0-.32-.01-.49-.01v.02c-52.71-.02-95.43-42.52-95.43-94.93s42.65-94.84,95.3-94.93h0s3.18,0,3.18,0l331.3.39-153.72,257.68h83.71l161.68-269.96v-56.31h-50.8Z"/>
</svg>